# Blender v2.79 (sub 0) OBJ File: 'nature.blend'
# www.blender.org
o Cylinder.005_Cylinder.003
v -1.208096 1.434975 -5.365201
v -1.208096 1.975323 -5.270545
v -0.943534 1.434975 -5.172987
v -1.033558 1.975323 -5.143736
v -1.044588 1.434975 -4.861976
v -1.100225 1.975323 -4.938555
v -1.371603 1.434975 -4.861976
v -1.315966 1.975323 -4.938555
v -1.472657 1.434975 -5.172987
v -1.382633 1.975323 -5.143736
v -1.208096 2.519124 -5.270545
v -1.033558 2.519124 -5.143736
v -1.100225 2.519124 -4.938555
v -1.315966 2.519124 -4.938555
v -1.382633 2.519124 -5.143736
v -1.208096 3.328496 -5.254873
v -1.048463 3.328496 -5.138893
v -1.109437 3.328496 -4.951233
v -1.306754 3.328496 -4.951233
v -1.367729 3.328496 -5.138893
v -1.208095 4.362676 -5.247096
v -1.055859 4.362676 -5.136490
v -1.114008 4.362676 -4.957526
v -1.302183 4.362676 -4.957526
v -1.360332 4.362676 -5.136490
v -1.208095 5.925791 -5.247096
v -1.055859 5.925791 -5.136490
v -1.114008 5.925791 -4.957526
v -1.302183 5.925791 -4.957526
v -1.360332 5.925791 -5.136490
v -1.205942 2.755068 -6.189198
v -1.205942 7.208583 -5.331343
v -0.254886 2.755068 -5.498215
v -1.070753 7.208583 -5.233123
v -0.618157 2.755068 -4.380181
v -1.122391 7.208583 -5.074199
v -1.793727 2.755068 -4.380180
v -1.289493 7.208583 -5.074199
v -2.156998 2.755068 -5.498214
v -1.341131 7.208583 -5.233123
v -1.205942 3.645771 -6.017627
v -1.205942 4.536474 -5.846056
v -1.205942 5.427177 -5.674485
v -1.205942 6.317880 -5.502914
v -0.907580 6.317880 -5.286141
v -0.744406 5.427177 -5.339160
v -0.581233 4.536474 -5.392178
v -0.418059 3.645771 -5.445197
v -1.021544 6.317880 -4.935396
v -0.920697 5.427177 -4.796592
v -0.819850 4.536474 -4.657788
v -0.719004 3.645771 -4.518984
v -1.390340 6.317880 -4.935395
v -1.491187 5.427177 -4.796592
v -1.592034 4.536474 -4.657788
v -1.692881 3.645771 -4.518984
v -1.504304 6.317880 -5.286141
v -1.667478 5.427176 -5.339159
v -1.830651 4.536474 -5.392178
v -1.993825 3.645771 -5.445196
v -1.171173 6.317880 -5.685244
v -0.723430 6.317880 -5.309417
v -0.942502 6.317880 -4.767451
v -1.525640 6.317880 -4.808324
v -1.666966 6.317880 -5.375552
v -1.366924 5.427177 -5.825090
v -0.650918 5.427177 -5.538803
v -0.701937 5.427177 -4.769372
v -1.449474 5.427177 -4.580127
v -1.860458 5.427176 -5.232596
v -1.015482 4.536474 -6.145544
v -0.237547 4.536474 -5.303586
v -0.797902 4.536474 -4.303547
v -1.922154 4.536474 -4.527447
v -2.056626 4.536474 -5.665863
v -1.100518 3.645771 -6.355477
v -0.064166 3.645771 -5.449333
v -0.605711 3.645771 -4.183691
v -1.976754 3.645771 -4.307624
v -2.282562 3.645771 -5.649862
v 0.265899 2.755068 -5.698975
v -0.266292 2.755068 -3.946923
v -2.097048 2.755068 -3.911653
v -2.696326 2.755068 -5.641906
v -1.235944 2.755068 -6.746531
v -1.208096 1.434975 -5.365201
v -1.208096 1.434975 -5.365201
v -0.943534 1.434975 -5.172987
v -0.943534 1.434975 -5.172987
v -1.033558 1.975323 -5.143736
v -1.033558 1.975323 -5.143736
v -1.033558 1.975323 -5.143736
v -1.208096 1.975323 -5.270545
v -1.208096 1.975323 -5.270545
v -1.208096 1.975323 -5.270545
v -1.044588 1.434975 -4.861976
v -1.044588 1.434975 -4.861976
v -1.100225 1.975323 -4.938555
v -1.100225 1.975323 -4.938555
v -1.100225 1.975323 -4.938555
v -1.371603 1.434975 -4.861976
v -1.371603 1.434975 -4.861976
v -1.315966 1.975323 -4.938555
v -1.315966 1.975323 -4.938555
v -1.315966 1.975323 -4.938555
v -1.472657 1.434975 -5.172987
v -1.472657 1.434975 -5.172987
v -1.382633 1.975323 -5.143736
v -1.382633 1.975323 -5.143736
v -1.382633 1.975323 -5.143736
v -1.033558 2.519124 -5.143736
v -1.033558 2.519124 -5.143736
v -1.033558 2.519124 -5.143736
v -1.208096 2.519124 -5.270545
v -1.208096 2.519124 -5.270545
v -1.208096 2.519124 -5.270545
v -1.100225 2.519124 -4.938555
v -1.100225 2.519124 -4.938555
v -1.100225 2.519124 -4.938555
v -1.315966 2.519124 -4.938555
v -1.315966 2.519124 -4.938555
v -1.315966 2.519124 -4.938555
v -1.382633 2.519124 -5.143736
v -1.382633 2.519124 -5.143736
v -1.382633 2.519124 -5.143736
v -1.048463 3.328496 -5.138893
v -1.048463 3.328496 -5.138893
v -1.048463 3.328496 -5.138893
v -1.208096 3.328496 -5.254873
v -1.208096 3.328496 -5.254873
v -1.208096 3.328496 -5.254873
v -1.109437 3.328496 -4.951233
v -1.109437 3.328496 -4.951233
v -1.109437 3.328496 -4.951233
v -1.306754 3.328496 -4.951233
v -1.306754 3.328496 -4.951233
v -1.306754 3.328496 -4.951233
v -1.367729 3.328496 -5.138893
v -1.367729 3.328496 -5.138893
v -1.367729 3.328496 -5.138893
v -1.055859 4.362676 -5.136490
v -1.055859 4.362676 -5.136490
v -1.055859 4.362676 -5.136490
v -1.208095 4.362676 -5.247096
v -1.208095 4.362676 -5.247096
v -1.208095 4.362676 -5.247096
v -1.114008 4.362676 -4.957526
v -1.114008 4.362676 -4.957526
v -1.114008 4.362676 -4.957526
v -1.302183 4.362676 -4.957526
v -1.302183 4.362676 -4.957526
v -1.302183 4.362676 -4.957526
v -1.360332 4.362676 -5.136490
v -1.360332 4.362676 -5.136490
v -1.360332 4.362676 -5.136490
v -1.055859 5.925791 -5.136490
v -1.055859 5.925791 -5.136490
v -1.208095 5.925791 -5.247096
v -1.208095 5.925791 -5.247096
v -1.114008 5.925791 -4.957526
v -1.114008 5.925791 -4.957526
v -1.302183 5.925791 -4.957526
v -1.302183 5.925791 -4.957526
v -1.360332 5.925791 -5.136490
v -1.360332 5.925791 -5.136490
v -1.205942 2.755068 -6.189198
v -1.205942 2.755068 -6.189198
v -0.254886 2.755068 -5.498215
v -0.254886 2.755068 -5.498215
v -1.070753 7.208583 -5.233123
v -1.070753 7.208583 -5.233123
v -1.205942 7.208583 -5.331343
v -1.205942 7.208583 -5.331343
v -1.171173 6.317880 -5.685244
v -1.171173 6.317880 -5.685244
v -1.171173 6.317880 -5.685244
v 0.265899 2.755068 -5.698975
v 0.265899 2.755068 -5.698975
v 0.265899 2.755068 -5.698975
v -0.618157 2.755068 -4.380181
v -0.618157 2.755068 -4.380181
v -1.122391 7.208583 -5.074199
v -1.122391 7.208583 -5.074199
v -0.266292 2.755068 -3.946923
v -0.266292 2.755068 -3.946923
v -0.266292 2.755068 -3.946923
v -1.793727 2.755068 -4.380180
v -1.793727 2.755068 -4.380180
v -1.289493 7.208583 -5.074199
v -1.289493 7.208583 -5.074199
v -2.097048 2.755068 -3.911653
v -2.097048 2.755068 -3.911653
v -2.097048 2.755068 -3.911653
v -2.156998 2.755068 -5.498214
v -2.156998 2.755068 -5.498214
v -1.341131 7.208583 -5.233123
v -1.341131 7.208583 -5.233123
v -2.696326 2.755068 -5.641906
v -2.696326 2.755068 -5.641906
v -2.696326 2.755068 -5.641906
v -1.235944 2.755068 -6.746531
v -1.235944 2.755068 -6.746531
v -1.235944 2.755068 -6.746531
v -1.205942 3.645771 -6.017627
v -1.205942 3.645771 -6.017627
v -1.205942 3.645771 -6.017627
v -1.100518 3.645771 -6.355477
v -1.100518 3.645771 -6.355477
v -1.100518 3.645771 -6.355477
v -1.205942 4.536474 -5.846056
v -1.205942 4.536474 -5.846056
v -1.205942 4.536474 -5.846056
v -1.015482 4.536474 -6.145544
v -1.015482 4.536474 -6.145544
v -1.015482 4.536474 -6.145544
v -1.205942 5.427177 -5.674485
v -1.205942 5.427177 -5.674485
v -1.205942 5.427177 -5.674485
v -1.366924 5.427177 -5.825090
v -1.366924 5.427177 -5.825090
v -1.366924 5.427177 -5.825090
v -1.205942 6.317880 -5.502914
v -1.205942 6.317880 -5.502914
v -1.205942 6.317880 -5.502914
v -0.723430 6.317880 -5.309417
v -0.723430 6.317880 -5.309417
v -0.723430 6.317880 -5.309417
v -0.907580 6.317880 -5.286141
v -0.907580 6.317880 -5.286141
v -0.907580 6.317880 -5.286141
v -0.650918 5.427177 -5.538803
v -0.650918 5.427177 -5.538803
v -0.650918 5.427177 -5.538803
v -0.744406 5.427177 -5.339160
v -0.744406 5.427177 -5.339160
v -0.744406 5.427177 -5.339160
v -0.237547 4.536474 -5.303586
v -0.237547 4.536474 -5.303586
v -0.237547 4.536474 -5.303586
v -0.581233 4.536474 -5.392178
v -0.581233 4.536474 -5.392178
v -0.581233 4.536474 -5.392178
v -0.064166 3.645771 -5.449333
v -0.064166 3.645771 -5.449333
v -0.064166 3.645771 -5.449333
v -0.418059 3.645771 -5.445197
v -0.418059 3.645771 -5.445197
v -0.418059 3.645771 -5.445197
v -0.942502 6.317880 -4.767451
v -0.942502 6.317880 -4.767451
v -0.942502 6.317880 -4.767451
v -1.021544 6.317880 -4.935396
v -1.021544 6.317880 -4.935396
v -1.021544 6.317880 -4.935396
v -0.701937 5.427177 -4.769372
v -0.701937 5.427177 -4.769372
v -0.701937 5.427177 -4.769372
v -0.920697 5.427177 -4.796592
v -0.920697 5.427177 -4.796592
v -0.920697 5.427177 -4.796592
v -0.797902 4.536474 -4.303547
v -0.797902 4.536474 -4.303547
v -0.797902 4.536474 -4.303547
v -0.819850 4.536474 -4.657788
v -0.819850 4.536474 -4.657788
v -0.819850 4.536474 -4.657788
v -0.605711 3.645771 -4.183691
v -0.605711 3.645771 -4.183691
v -0.605711 3.645771 -4.183691
v -0.719004 3.645771 -4.518984
v -0.719004 3.645771 -4.518984
v -0.719004 3.645771 -4.518984
v -1.525640 6.317880 -4.808324
v -1.525640 6.317880 -4.808324
v -1.525640 6.317880 -4.808324
v -1.390340 6.317880 -4.935395
v -1.390340 6.317880 -4.935395
v -1.390340 6.317880 -4.935395
v -1.449474 5.427177 -4.580127
v -1.449474 5.427177 -4.580127
v -1.449474 5.427177 -4.580127
v -1.491187 5.427177 -4.796592
v -1.491187 5.427177 -4.796592
v -1.491187 5.427177 -4.796592
v -1.922154 4.536474 -4.527447
v -1.922154 4.536474 -4.527447
v -1.922154 4.536474 -4.527447
v -1.592034 4.536474 -4.657788
v -1.592034 4.536474 -4.657788
v -1.592034 4.536474 -4.657788
v -1.976754 3.645771 -4.307624
v -1.976754 3.645771 -4.307624
v -1.976754 3.645771 -4.307624
v -1.692881 3.645771 -4.518984
v -1.692881 3.645771 -4.518984
v -1.692881 3.645771 -4.518984
v -1.666966 6.317880 -5.375552
v -1.666966 6.317880 -5.375552
v -1.666966 6.317880 -5.375552
v -1.504304 6.317880 -5.286141
v -1.504304 6.317880 -5.286141
v -1.504304 6.317880 -5.286141
v -1.860458 5.427176 -5.232596
v -1.860458 5.427176 -5.232596
v -1.860458 5.427176 -5.232596
v -1.667478 5.427176 -5.339159
v -1.667478 5.427176 -5.339159
v -1.667478 5.427176 -5.339159
v -2.056626 4.536474 -5.665863
v -2.056626 4.536474 -5.665863
v -2.056626 4.536474 -5.665863
v -1.830651 4.536474 -5.392178
v -1.830651 4.536474 -5.392178
v -1.830651 4.536474 -5.392178
v -2.282562 3.645771 -5.649862
v -2.282562 3.645771 -5.649862
v -2.282562 3.645771 -5.649862
v -1.993825 3.645771 -5.445196
v -1.993825 3.645771 -5.445196
v -1.993825 3.645771 -5.445196
vt 0.689346 0.982732
vt 0.720238 0.920630
vt 0.726594 0.982732
vt 0.360472 0.923175
vt 0.391401 0.985276
vt 0.354153 0.985276
vt 0.941329 0.520038
vt 0.910400 0.457937
vt 0.947648 0.457937
vt 0.989212 0.838509
vt 0.964638 0.899386
vt 0.964638 0.838477
vt 0.327331 0.985276
vt 0.296401 0.923175
vt 0.333650 0.923175
vt 0.243132 0.923175
vt 0.274062 0.985276
vt 0.236813 0.985276
vt 0.653638 0.456651
vt 0.689064 0.505403
vt 0.653638 0.516911
vt 0.212547 0.831774
vt 0.189133 0.922691
vt 0.187973 0.831774
vt 0.964638 0.980829
vt 0.989211 0.919952
vt 0.989212 0.980861
vt 0.989212 0.757067
vt 0.964638 0.817944
vt 0.964638 0.757034
vt 0.415577 0.984084
vt 0.440151 0.923208
vt 0.440151 0.984117
vt 0.734141 0.456684
vt 0.709567 0.517560
vt 0.709567 0.456651
vt 0.524578 0.932477
vt 0.502474 0.816512
vt 0.523908 0.816512
vt 0.934119 0.101167
vt 0.957533 0.010250
vt 0.958693 0.101167
vt 0.142896 0.922691
vt 0.166310 0.831774
vt 0.167470 0.922691
vt 0.447985 0.735865
vt 0.471399 0.644948
vt 0.472559 0.735865
vt 0.889896 0.429121
vt 0.866483 0.520038
vt 0.865323 0.429121
vt 0.913616 0.010279
vt 0.892183 0.185330
vt 0.892183 0.010250
vt 0.821338 0.909139
vt 0.843143 0.793173
vt 0.843813 0.909139
vt 0.567556 0.932477
vt 0.545452 0.816512
vt 0.566886 0.816512
vt 0.778360 0.909139
vt 0.800164 0.793173
vt 0.800835 0.909139
vt 0.610534 0.816512
vt 0.588730 0.932477
vt 0.588059 0.816512
vt 0.811344 0.957692
vt 0.790958 0.964314
vt 0.778360 0.946976
vt 0.944135 0.540567
vt 0.922701 0.715618
vt 0.922701 0.540538
vt 0.944135 0.736175
vt 0.922701 0.911227
vt 0.922701 0.736147
vt 0.097215 0.927399
vt 0.118648 0.752348
vt 0.118648 0.927428
vt 0.946006 0.239318
vt 0.924572 0.414370
vt 0.924572 0.239289
vt 0.778360 0.646356
vt 0.819341 0.540779
vt 0.844820 0.646356
vt 0.778360 0.772674
vt 0.819341 0.667097
vt 0.844820 0.772674
vt 0.010252 0.858137
vt 0.051233 0.752560
vt 0.076712 0.858137
vt 0.845992 0.187532
vt 0.864095 0.193413
vt 0.864095 0.212443
vt 0.761608 0.472281
vt 0.802590 0.366704
vt 0.828068 0.472281
vt 0.142896 0.811274
vt 0.183878 0.705698
vt 0.209356 0.811274
vt 0.216310 0.185505
vt 0.088959 0.226878
vt 0.010252 0.118564
vt 0.237200 0.167219
vt 0.348955 0.010250
vt 0.348955 0.218718
vt 0.611240 0.343275
vt 0.503541 0.228920
vt 0.611240 0.187013
vt 0.741105 0.287351
vt 0.634081 0.204226
vt 0.741105 0.159050
vt 0.268449 0.646874
vt 0.321896 0.751622
vt 0.236813 0.751622
vt 0.010638 0.404346
vt 0.122393 0.247377
vt 0.122393 0.455845
vt 0.611240 0.166513
vt 0.503541 0.052158
vt 0.611240 0.010250
vt 0.611464 0.668838
vt 0.504440 0.585713
vt 0.611464 0.540538
vt 0.041887 0.627071
vt 0.095334 0.731819
vt 0.010252 0.731819
vt 0.237200 0.396186
vt 0.348955 0.239218
vt 0.348955 0.447686
vt 0.611240 0.520038
vt 0.503541 0.405683
vt 0.611240 0.363775
vt 0.741105 0.436151
vt 0.634081 0.353026
vt 0.741105 0.307850
vt 0.533738 0.691264
vt 0.587185 0.796012
vt 0.502103 0.796012
vt 0.369845 0.396186
vt 0.481600 0.239218
vt 0.481600 0.447686
vt 0.475591 0.624449
vt 0.367892 0.510094
vt 0.475591 0.468186
vt 0.119613 0.604646
vt 0.012589 0.521521
vt 0.119613 0.476345
vt 0.374035 0.646874
vt 0.427482 0.751622
vt 0.342399 0.751622
vt 0.369845 0.167218
vt 0.481600 0.010250
vt 0.481600 0.218718
vt 0.345951 0.624449
vt 0.238251 0.510094
vt 0.345951 0.468186
vt 0.741105 0.138550
vt 0.634081 0.055425
vt 0.741105 0.010250
vt 0.793244 0.241215
vt 0.846691 0.345963
vt 0.761608 0.345963
vt 0.074277 0.878637
vt 0.058761 0.930853
vt 0.055824 0.888954
vt 0.479108 0.923175
vt 0.463591 0.975391
vt 0.460654 0.933492
vt 0.984963 0.326364
vt 0.969446 0.378580
vt 0.966509 0.336682
vt 0.984963 0.239289
vt 0.969446 0.291505
vt 0.966509 0.249607
vt 0.986605 0.453463
vt 0.971088 0.505679
vt 0.968151 0.463780
vt 0.976934 0.672736
vt 0.989748 0.736535
vt 0.964638 0.736535
vt 0.026199 0.902028
vt 0.035320 0.966458
vt 0.010252 0.965013
vt 0.950067 0.145058
vt 0.959188 0.209488
vt 0.934119 0.208043
vt 0.881271 0.918493
vt 0.890392 0.982923
vt 0.865323 0.981478
vt 0.980586 0.563929
vt 0.989707 0.628359
vt 0.964638 0.626914
vt 0.275898 0.772122
vt 0.253993 0.868702
vt 0.236813 0.782453
vt 0.728431 0.769577
vt 0.706525 0.866157
vt 0.689346 0.779909
vt 0.454662 0.772122
vt 0.432757 0.868702
vt 0.415577 0.782453
vt 0.395074 0.772122
vt 0.373169 0.868702
vt 0.355989 0.782453
vt 0.335486 0.772122
vt 0.313581 0.868702
vt 0.296401 0.782453
vt 0.904069 0.239289
vt 0.877181 0.366040
vt 0.867194 0.255577
vt 0.902198 0.540538
vt 0.875310 0.667288
vt 0.865323 0.556826
vt 0.871679 0.010250
vt 0.844791 0.137000
vt 0.834804 0.026538
vt 0.902198 0.717820
vt 0.875310 0.844570
vt 0.865323 0.734108
vt 0.668843 0.769577
vt 0.641954 0.896328
vt 0.631967 0.785865
vt 0.707743 0.579653
vt 0.757856 0.749077
vt 0.705164 0.713512
vt 0.145476 0.515532
vt 0.195589 0.684957
vt 0.142896 0.649391
vt 0.145476 0.286493
vt 0.195589 0.455917
vt 0.142896 0.420351
vt 0.764187 0.049365
vt 0.814301 0.218790
vt 0.761608 0.183224
vt 0.634547 0.579653
vt 0.684660 0.749078
vt 0.631967 0.713512
vt 0.695665 0.920631
vt 0.385045 0.923175
vt 0.916755 0.520038
vt 0.989212 0.899419
vt 0.302757 0.985276
vt 0.267706 0.923175
vt 0.631743 0.486781
vt 0.689064 0.468159
vt 0.211608 0.922691
vt 0.964638 0.919919
vt 0.989212 0.817977
vt 0.415577 0.923175
vt 0.734141 0.517593
vt 0.502103 0.932477
vt 0.935058 0.010250
vt 0.143835 0.831774
vt 0.448923 0.644948
vt 0.888958 0.520038
vt 0.913616 0.185359
vt 0.821709 0.793173
vt 0.545081 0.932477
vt 0.778731 0.793173
vt 0.610163 0.932477
vt 0.790958 0.929639
vt 0.811344 0.936261
vt 0.944135 0.715647
vt 0.944135 0.911256
vt 0.097215 0.752319
vt 0.946006 0.414398
vt 0.800309 0.540538
vt 0.800309 0.666856
vt 0.032201 0.752319
vt 0.845992 0.218324
vt 0.834804 0.202928
vt 0.783558 0.366463
vt 0.164846 0.705456
vt 0.088959 0.010250
vt 0.216310 0.051622
vt 0.236813 0.056309
vt 0.502103 0.316849
vt 0.631743 0.269154
vt 0.310412 0.644948
vt 0.010252 0.293437
vt 0.502103 0.140086
vt 0.502103 0.650641
vt 0.083850 0.625146
vt 0.236813 0.285277
vt 0.502103 0.493611
vt 0.631743 0.417954
vt 0.575701 0.689338
vt 0.369458 0.285277
vt 0.366454 0.598022
vt 0.010252 0.586449
vt 0.415998 0.644948
vt 0.369458 0.056309
vt 0.236813 0.598022
vt 0.631743 0.120353
vt 0.835207 0.239289
vt 0.074277 0.945212
vt 0.479108 0.989750
vt 0.984963 0.392940
vt 0.984963 0.305865
vt 0.986605 0.520038
vt 0.984694 0.648859
vt 0.035320 0.878637
vt 0.959188 0.121667
vt 0.890392 0.895101
vt 0.989707 0.540538
vt 0.275898 0.902675
vt 0.728431 0.900131
vt 0.454662 0.902675
vt 0.395074 0.902675
vt 0.335486 0.902675
vt 0.904069 0.396071
vt 0.902198 0.697320
vt 0.871679 0.167032
vt 0.902198 0.874602
vt 0.668843 0.926359
vt 0.757856 0.540538
vt 0.195589 0.476417
vt 0.195589 0.247377
vt 0.814301 0.010250
vt 0.684660 0.540538
vn 0.5820 0.1403 -0.8010
vn 0.9416 0.1403 0.3060
vn 0.0000 0.1403 0.9901
vn 0.9511 0.0000 0.3090
vn -0.9416 0.1403 0.3060
vn -0.5820 0.1403 -0.8010
vn 0.0000 -1.0000 0.0000
vn -0.9509 0.0157 0.3090
vn -0.5878 0.0000 -0.8090
vn 0.5878 0.0000 -0.8090
vn 0.0000 0.0000 1.0000
vn -0.9511 0.0000 0.3090
vn -0.5878 0.0061 -0.8090
vn 0.9509 0.0157 0.3090
vn -0.5877 0.0157 -0.8089
vn 0.0000 0.0157 0.9999
vn 0.5877 0.0157 -0.8089
vn 0.0000 0.0061 1.0000
vn 0.5878 0.0061 -0.8090
vn -0.9510 0.0061 0.3090
vn 0.9510 0.0061 0.3090
vn 0.0000 1.0000 0.0000
vn 0.6130 0.3016 -0.7303
vn 0.8840 0.3016 0.3573
vn -0.0667 0.3016 0.9511
vn -0.9252 0.3016 0.2305
vn -0.5051 0.3016 -0.8086
vn -0.5054 0.5461 -0.6681
vn -0.4708 0.3954 -0.7887
vn -0.3897 0.3640 -0.8459
vn -0.7420 0.2595 -0.6181
vn -0.7916 0.5461 0.2742
vn -0.8956 0.3954 0.2040
vn -0.9250 0.3640 0.1093
vn -0.8171 0.2595 0.5147
vn 0.0161 0.5461 0.8375
vn -0.0827 0.3954 0.9148
vn -0.1819 0.3640 0.9134
vn 0.2370 0.2595 0.9362
vn 0.8015 0.5461 0.2435
vn 0.8445 0.3954 0.3613
vn 0.8125 0.3640 0.4553
vn 0.9636 0.2595 0.0639
vn 0.4792 0.5461 -0.6871
vn 0.6046 0.3954 -0.6915
vn 0.6841 0.3640 -0.6321
vn 0.3585 0.2595 -0.8967
vn 0.5557 0.3256 -0.7649
vn 0.8992 0.3256 0.2922
vn 0.0000 0.3256 0.9455
vn -0.8992 0.3256 0.2922
vn -0.5558 0.3256 -0.7649
vn -0.4856 0.5634 -0.6684
vn -0.5189 0.4699 -0.7142
vn -0.5143 0.4843 -0.7078
vn -0.5460 0.3705 -0.7514
vn -0.7858 0.5634 0.2553
vn -0.8395 0.4699 0.2728
vn -0.8321 0.4843 0.2704
vn -0.8834 0.3705 0.2870
vn 0.0000 0.5634 0.8262
vn 0.0000 0.4699 0.8827
vn 0.0000 0.4843 0.8749
vn 0.0000 0.3705 0.9288
vn 0.7858 0.5634 0.2553
vn 0.8395 0.4699 0.2728
vn 0.8321 0.4843 0.2704
vn 0.8834 0.3705 0.2870
vn 0.4856 0.5634 -0.6684
vn 0.5189 0.4699 -0.7142
vn 0.5143 0.4843 -0.7078
vn 0.5460 0.3705 -0.7514
s off
f 86/1/1 90/2/1 88/3/1
f 91/4/2 96/5/2 89/6/2
f 99/7/3 101/8/3 97/9/3
f 92/10/4 117/11/4 100/12/4
f 104/13/5 106/14/5 102/15/5
f 109/16/6 87/17/6 107/18/6
f 3/19/7 7/20/7 9/21/7
f 121/22/8 138/23/8 123/24/8
f 110/25/9 115/26/9 95/27/9
f 2/28/10 111/29/10 4/30/10
f 6/31/11 120/32/11 105/33/11
f 8/34/12 125/35/12 10/36/12
f 130/37/13 154/38/13 145/39/13
f 113/40/14 132/41/14 119/42/14
f 15/43/15 131/44/15 116/45/15
f 13/46/16 135/47/16 14/48/16
f 11/49/17 126/50/17 12/51/17
f 151/52/12 164/53/12 153/54/12
f 134/55/18 150/56/18 137/57/18
f 128/58/19 144/59/19 141/60/19
f 19/61/20 155/62/20 20/63/20
f 17/64/21 147/65/21 18/66/21
f 165/67/22 162/68/22 160/69/22
f 143/70/4 161/71/4 149/72/4
f 25/73/9 159/74/9 146/75/9
f 23/76/11 29/77/11 24/78/11
f 21/79/10 27/80/10 22/81/10
f 174/82/23 170/83/23 226/84/23
f 227/85/24 182/86/24 250/87/24
f 251/88/25 189/89/25 274/90/25
f 196/91/22 190/92/22 36/93/22
f 275/94/26 197/95/26 298/96/26
f 299/97/27 32/98/27 176/99/27
f 180/100/7 187/101/7 194/102/7
f 319/103/28 201/104/28 199/105/28
f 316/106/29 210/107/29 207/108/29
f 310/109/30 216/110/30 213/111/30
f 301/112/31 219/113/31 304/114/31
f 295/115/32 200/116/32 192/117/32
f 292/118/33 314/119/33 317/120/33
f 286/121/34 308/122/34 311/123/34
f 277/124/35 305/125/35 280/126/35
f 271/127/36 193/128/36 185/129/36
f 268/130/37 290/131/37 293/132/37
f 262/133/38 284/134/38 287/135/38
f 253/136/39 281/137/39 256/138/39
f 247/139/40 186/140/40 178/141/40
f 244/142/41 266/143/41 269/144/41
f 238/145/42 260/146/42 263/147/42
f 229/148/43 257/149/43 232/150/43
f 205/151/44 179/152/44 203/153/44
f 209/154/45 242/155/45 245/156/45
f 215/157/46 236/158/46 239/159/46
f 223/160/47 233/161/47 221/162/47
f 297/163/7 224/164/7 300/165/7
f 273/166/7 57/167/7 276/168/7
f 249/169/7 53/170/7 252/171/7
f 225/172/7 49/173/7 228/174/7
f 61/175/7 45/176/7 44/177/7
f 218/178/7 231/179/7 234/180/7
f 46/181/7 255/182/7 258/183/7
f 50/184/7 279/185/7 282/186/7
f 54/187/7 303/188/7 306/189/7
f 58/190/7 66/191/7 43/192/7
f 214/193/7 240/194/7 212/195/7
f 72/196/7 264/197/7 47/198/7
f 73/199/7 288/200/7 51/201/7
f 74/202/7 312/203/7 55/204/7
f 75/205/7 42/206/7 59/207/7
f 208/208/7 246/209/7 206/210/7
f 77/211/7 270/212/7 48/213/7
f 78/214/7 294/215/7 52/216/7
f 79/217/7 318/218/7 56/219/7
f 80/220/7 41/221/7 60/222/7
f 167/223/7 177/224/7 169/225/7
f 33/226/7 184/227/7 181/228/7
f 35/229/7 191/230/7 188/231/7
f 37/232/7 198/233/7 195/234/7
f 39/235/7 85/236/7 31/237/7
f 86/1/1 93/238/1 90/2/1
f 91/4/2 98/239/2 96/5/2
f 99/7/3 103/240/3 101/8/3
f 92/10/4 112/241/4 117/11/4
f 104/13/5 108/242/5 106/14/5
f 109/16/6 94/243/6 87/17/6
f 9/21/7 1/244/7 3/19/7
f 3/19/7 5/245/7 7/20/7
f 121/22/8 136/246/8 138/23/8
f 110/25/9 124/247/9 115/26/9
f 2/28/10 114/248/10 111/29/10
f 6/31/11 118/249/11 120/32/11
f 8/34/12 122/250/12 125/35/12
f 130/37/13 139/251/13 154/38/13
f 113/40/14 127/252/14 132/41/14
f 15/43/15 140/253/15 131/44/15
f 13/46/16 133/254/16 135/47/16
f 11/49/17 129/255/17 126/50/17
f 151/52/12 163/256/12 164/53/12
f 134/55/18 148/257/18 150/56/18
f 128/58/19 16/258/19 144/59/19
f 19/61/20 152/259/20 155/62/20
f 17/64/21 142/260/21 147/65/21
f 160/69/22 156/261/22 158/262/22
f 158/262/22 165/67/22 160/69/22
f 143/70/4 157/263/4 161/71/4
f 25/73/9 30/264/9 159/74/9
f 23/76/11 28/265/11 29/77/11
f 21/79/10 26/266/10 27/80/10
f 174/82/48 172/267/48 170/83/48
f 227/85/49 171/268/49 182/86/49
f 251/88/50 183/269/50 189/89/50
f 36/93/22 34/270/22 173/271/22
f 173/271/22 196/91/22 36/93/22
f 275/94/51 38/272/51 197/95/51
f 299/97/52 40/273/52 32/98/52
f 194/102/7 166/274/7 168/275/7
f 168/275/7 180/100/7 194/102/7
f 319/103/53 204/276/53 201/104/53
f 316/106/54 313/277/54 210/107/54
f 310/109/55 307/278/55 216/110/55
f 301/112/56 222/279/56 219/113/56
f 295/115/57 320/280/57 200/116/57
f 292/118/58 289/281/58 314/119/58
f 286/121/59 283/282/59 308/122/59
f 277/124/60 302/283/60 305/125/60
f 271/127/61 296/284/61 193/128/61
f 268/130/62 265/285/62 290/131/62
f 262/133/63 259/286/63 284/134/63
f 253/136/64 278/287/64 281/137/64
f 247/139/65 272/288/65 186/140/65
f 244/142/66 241/289/66 266/143/66
f 238/145/67 235/290/67 260/146/67
f 229/148/68 254/291/68 257/149/68
f 205/151/69 248/292/69 179/152/69
f 209/154/70 211/293/70 242/155/70
f 215/157/71 217/294/71 236/158/71
f 223/160/72 230/295/72 233/161/72
f 297/163/7 175/296/7 224/164/7
f 273/166/7 65/297/7 57/167/7
f 249/169/7 64/298/7 53/170/7
f 225/172/7 63/299/7 49/173/7
f 61/175/7 62/300/7 45/176/7
f 218/178/7 220/301/7 231/179/7
f 46/181/7 67/302/7 255/182/7
f 50/184/7 68/303/7 279/185/7
f 54/187/7 69/304/7 303/188/7
f 58/190/7 70/305/7 66/191/7
f 214/193/7 237/306/7 240/194/7
f 72/196/7 261/307/7 264/197/7
f 73/199/7 285/308/7 288/200/7
f 74/202/7 309/309/7 312/203/7
f 75/205/7 71/310/7 42/206/7
f 208/208/7 243/311/7 246/209/7
f 77/211/7 267/312/7 270/212/7
f 78/214/7 291/313/7 294/215/7
f 79/217/7 315/314/7 318/218/7
f 80/220/7 76/315/7 41/221/7
f 167/223/7 202/316/7 177/224/7
f 33/226/7 81/317/7 184/227/7
f 35/229/7 82/318/7 191/230/7
f 37/232/7 83/319/7 198/233/7
f 39/235/7 84/320/7 85/236/7
